<?xml version="1.0" encoding="UTF-8"?><svg xmlns="http://www.w3.org/2000/svg" viewBox="0 0 1434.1 1068.62"><defs><style>.i{opacity:.25;}.j{opacity:.65;}.k{opacity:.5;}</style></defs><g id="a"><path d="M163.82,726.91C317.33,420.48,499.34,216.58,499.34,216.58c194.4,229.25,335.9,510.34,335.9,510.34h159.74C793.97,292.99,501.36,0,501.36,0,185.13,310.46,3.69,726.91,3.69,726.91h160.13Z"/></g><g id="b"><path d="M560.55,727.23c153.5-306.43,335.52-510.34,335.52-510.34,194.4,229.25,335.9,510.34,335.9,510.34h159.74C1190.69,293.31,898.08.32,898.08.32c-316.22,310.46-497.66,726.91-497.66,726.91h160.13Z"/></g><g id="c"><path class="i" d="M1413.68,132.1c-14.37,15.16-30.98,27.98-47.88,40.23-138.24,100.27-295.86,172.55-449.91,244.62-177.59,83.07-358.89,157.44-541.11,229.22-51.37,20.17-97.01,37.45-137.37,52.1-.08.03-.16.07-.24.1-15.21,5.5-29.68,10.66-43.41,15.43-.03.01-.05.02-.08.03-.04.01-.09.03-.13.04-9.91,3.45-19.43,6.7-28.58,9.77l.29-.57.08-.16c1.91-.84,4.17-1.83,6.76-2.97.44-.19.89-.39,1.35-.59,3.29-1.45,7.07-3.12,11.32-5,1.09-.48,2.21-.98,3.37-1.49.75-.34,1.51-.67,2.28-1.02,1.17-.51,2.37-1.04,3.59-1.59.25-.11.51-.23.76-.34,4.48-1.98,9.34-4.15,14.54-6.47.07-.04.14-.07.21-.09,1.2-.53,2.41-1.08,3.65-1.63,1.22-.55,2.47-1.1,3.74-1.66,2.52-1.14,5.15-2.31,7.83-3.52,1.78-.79,3.59-1.61,5.43-2.43.93-.42,1.86-.84,2.81-1.27,1.87-.84,3.78-1.7,5.71-2.57.96-.43,1.93-.87,2.91-1.31.99-.44,1.98-.89,2.99-1.35,1.49-.68,3-1.36,4.53-2.04,1.53-.69,3.06-1.39,4.62-2.09,1.56-.71,3.14-1.43,4.73-2.15.54-.24,1.07-.48,1.61-.73,1.06-.48,2.13-.96,3.2-1.45.02,0,.02-.01.02-.01,2.16-.97,4.34-1.97,6.55-2.97h.02c4.42-2.02,8.96-4.08,13.59-6.19.58-.27,1.16-.54,1.75-.81,1.75-.79,3.51-1.6,5.29-2.41,2.37-1.08,4.75-2.18,7.17-3.28,1.21-.55,2.43-1.11,3.65-1.67,1.12-.51,2.24-1.03,3.36-1.55,2.03-.93,4.08-1.87,6.14-2.82,10.45-4.8,21.32-9.82,32.54-15.03,2.44-1.13,4.9-2.27,7.38-3.42,1.85-.87,3.72-1.74,5.59-2.61,1.88-.87,3.77-1.75,5.66-2.63,5.44-2.54,10.96-5.12,16.55-7.74,1.26-.58,2.52-1.17,3.78-1.77,5.05-2.37,10.16-4.77,15.32-7.2,7.78-3.66,15.67-7.38,23.67-11.18,1.37-.64,2.74-1.3,4.12-1.95,15.57-7.39,31.53-15.01,47.81-22.84,6.11-2.93,12.26-5.9,18.45-8.9,15.25-7.37,30.74-14.91,46.41-22.6,4.5-2.21,9.02-4.43,13.55-6.66,42.26-20.83,85.7-42.66,129.09-65.08,3-1.54,5.99-3.09,8.99-4.65,3.2-1.66,6.4-3.32,9.6-4.99,3.1-1.61,6.19-3.22,9.29-4.84,9.73-5.08,19.44-10.19,29.12-15.32,5.35-2.84,10.69-5.68,16.02-8.52,49.45-26.39,97.92-53.23,143.57-79.88,2.84-1.64,5.66-3.3,8.47-4.95,2.64-1.56,5.28-3.11,7.91-4.66,11.31-6.69,22.43-13.36,33.32-20.01,5.38-3.28,10.69-6.54,15.95-9.8,3.94-2.45,7.85-4.89,11.73-7.32,3.88-2.43,7.72-4.86,11.53-7.29,1.27-.81,2.53-1.62,3.79-2.42,6.31-4.03,12.52-8.05,18.62-12.05,2.44-1.6,4.86-3.19,7.26-4.79,1.2-.79,2.41-1.59,3.6-2.39.55-.36,1.09-.72,1.64-1.09,1.68-1.12,3.35-2.24,5.02-3.36,1.66-1.12,3.32-2.24,4.96-3.36,1.65-1.12,3.28-2.23,4.91-3.34.35-.24.69-.47,1.03-.71,2.09-1.43,4.17-2.87,6.23-4.29,1.33-.92,2.65-1.84,3.97-2.76.87-.61,1.74-1.22,2.6-1.82,1.76-1.23,3.5-2.46,5.24-3.69,2.89-2.06,5.75-4.1,8.57-6.13,1.07-.77,2.14-1.54,3.19-2.31,2.08-1.51,4.14-3.01,6.17-4.52,4.2-3.08,8.3-6.15,12.31-9.2.96-.72,1.91-1.45,2.85-2.17,10.43-7.99,20.22-15.83,29.32-23.52,1.21-1.02,2.41-2.04,3.6-3.06,3.11-2.67,6.13-5.32,9.06-7.95.43-.38.86-.76,1.28-1.15,5.02-4.52,9.77-8.97,14.24-13.36.98-.96,1.94-1.91,2.89-2.87,1.35-1.35,2.69-2.71,3.99-4.06,2.61-2.71,5.13-5.39,7.51-8.04.74-.83,1.47-1.65,2.19-2.47.73-.83,1.44-1.65,2.13-2.46,1.01-1.17,1.99-2.34,2.94-3.49.62-.75,1.23-1.5,1.82-2.25.42-.51.83-1.02,1.22-1.53,1.26-1.59,2.46-3.18,3.62-4.75.59-.79,1.16-1.57,1.72-2.35h0c.89-1.24,1.73-2.48,2.55-3.71,0-.01.01-.01.02-.02.58-.86,1.15-1.72,1.69-2.58.24-.36.47-.73.69-1.09.77-1.21,1.5-2.42,2.19-3.62.7-1.19,1.36-2.38,1.99-3.56.31-.59.62-1.17.92-1.76t.01-.01c.3-.58.59-1.17.87-1.75.14-.29.28-.58.41-.87.21-.43.41-.87.6-1.3.4-.86.77-1.72,1.12-2.58.19-.43.36-.85.52-1.28.18-.43.34-.86.49-1.28.31-.81.59-1.61.85-2.41.14-.38.26-.76.37-1.14.13-.38.24-.76.35-1.14.11-.38.22-.77.33-1.15.1-.37.2-.74.28-1.1.19-.7.35-1.39.49-2.08.12-.55.22-1.09.32-1.62.05-.24.09-.48.12-.72.06-.36.12-.73.17-1.09.06-.36.11-.72.14-1.08.05-.36.09-.72.12-1.08.07-.68.12-1.35.15-2.01.01-.08.01-.16.01-.24.03-.29.04-.58.04-.86v-.21c.03-.86.02-1.71-.01-2.55-1.78-45.35-96.78-54.67-168.66-55.21,6.23-.78,12.77-1.56,19.55-2.34.03,0,.06,0,.09,0,54.71-6.36,126.18-12.91,193.44-13.92h.12c16.31-.24,32.66-.2,49,.22,12.85.33,25.68.91,38.48,1.77,28.38,1.92,57.21,6.39,82.86,19.39,11.55,5.86,21.98,15.61,24.87,28.28.18.81.33,1.61.45,2.42,2.51,16.72-8.25,33.05-20.05,45.5Z"/></g><g id="d"><path class="k" d="M1401.61,106.26c-9.12,18.82-28.47,36.54-40.3,47.15-63.03,56.51-140.21,98.45-214.19,138.7-.36.2-.73.4-1.09.59-39.33,21.38-79.15,41.86-119.24,61.77-49.32,24.5-99.07,48.14-149.07,71.22-60.34,27.85-121.07,54.87-182.04,81.33-72.41,31.42-145.16,62.05-218.14,92.11-37.7,15.53-75.87,30.1-113.33,46.17-.1.04-.2.09-.3.13-14.96,5.84-27.92,9.92-39.06,12.34-6.39,1.39-12.17,2.25-17.38,2.58-1.97.14-3.86.2-5.66.19,285.7-130.51,897.67-425.31,892.61-553.81-1.78-45.19-96.82-54.48-168.77-55.02-44.1,5.41-72.64,9.98-72.64,9.98l-6.74-7.36-3.57-4.21c112.88-15.63,193.46-20.21,250.67-18.14,14.1-.19,27.1-.1,39.12.26,21.55.64,43.74,2.66,65.36,4.8,21.5,2.13,43.03,5.13,64.04,10.21,14.94,3.62,31.43,9.49,40.05,23.14,7.16,11.35,5.51,23.82-.32,35.85Z"/></g><g id="e"><path class="j" d="M1371.26,91.58c-1.13,4.75-3.14,9.4-5.62,13.72-6.23,10.84-15.04,19.91-23.86,28.61-14.65,14.47-30.45,27.43-46.72,40.02-24.71,19.16-49.82,37.3-76.03,54.37-11.67,7.59-23.43,15.03-35.28,22.33-37.67,23.25-76.12,45.25-114.94,66.5-42.56,23.31-85.59,45.71-128.92,67.53-45.25,22.79-90.84,44.94-136.64,66.62-45.82,21.68-91.88,42.9-138.1,63.76-44.27,19.98-88.71,39.61-133.27,58.96-40.64,17.65-81.37,35.06-122.21,52.25-15.31,6.45-30.63,12.86-45.98,19.26-.1.04-.2.09-.3.13-49.3,20.53-92.22,38.02-125.98,51.63-.08.03-.16.07-.24.1-36.99,14.91-62.98,25.05-74.29,29.44l.88-1.75,1.21-2.42.29-.57c18.53-7.83,70.3-29.86,141.71-61.45,297.42-131.57,935.43-429.08,930.35-558.08-1.99-50.7-120.35-56.39-192.82-55.09h-.13c-32.04.56-55.08,2.49-55.08,2.49l-3.52-4.25c86.64-10.34,154.14-14.99,206.7-15.68,14.09-.19,27.09-.11,39.1.25,18.01.52,36.89,1.19,55.5,3.48.02,0,.05.01.07.01,20.03,2.49,39.74,6.89,57.65,15.05,9.75,4.47,19.25,11.5,24.29,21.24,3.6,6.97,3.87,14.38,2.18,21.54Z"/></g><g id="f"><path d="M1327.9,95.18c-2.6,11.02-10.39,20.92-18.01,29.32-36.48,40.25-80.85,72.79-125.64,103.07-36.72,24.84-74.51,48.03-112.79,70.36-42.92,25.04-86.46,48.97-130.38,72.19-46.47,24.59-93.36,48.39-140.51,71.64-47.46,23.41-95.21,46.26-143.15,68.69-45.94,21.49-92.07,42.58-138.34,63.35-41.9,18.82-83.91,37.36-126.04,55.65-22.87,9.93-45.77,19.78-68.69,29.58-55.95,23.88-101.23,42.71-130.59,54.77-.03.01-.05.02-.08.03-.04.01-.1.04-.14.06-13.48,5.54-23.58,9.65-29.78,12.17l1.21-2.42.29-.57.08-.16c1.91-.84,4.17-1.83,6.76-2.97.44-.19.89-.39,1.35-.59,3.29-1.45,7.07-3.12,11.32-5,1.09-.49,2.22-.99,3.37-1.49.75-.34,1.51-.67,2.28-1.02,1.17-.51,2.37-1.04,3.59-1.59.25-.11.51-.23.76-.34,4.49-1.99,9.34-4.15,14.54-6.47.07-.04.14-.07.21-.09.8-.36,1.6-.73,2.42-1.09.41-.18.82-.35,1.23-.54,1.23-.54,2.47-1.1,3.74-1.66,2.52-1.14,5.15-2.31,7.83-3.52,1.78-.79,3.59-1.61,5.43-2.43.93-.42,1.86-.84,2.81-1.27,1.87-.83,3.78-1.69,5.71-2.57.96-.43,1.93-.87,2.91-1.31.99-.44,1.98-.89,2.99-1.35,1.5-.67,3.01-1.35,4.53-2.04,1.53-.69,3.06-1.39,4.62-2.09.01,0,.01-.02.01-.02,1.56-.7,3.13-1.41,4.72-2.13.54-.24,1.07-.48,1.61-.73,1.06-.48,2.13-.96,3.2-1.45.02,0,.02-.01.02-.01,2.16-.97,4.34-1.96,6.55-2.97h.02c4.43-2.01,8.95-4.07,13.59-6.19.58-.27,1.16-.54,1.75-.81.58-.27,1.17-.53,1.76-.81,1.17-.52,2.35-1.06,3.53-1.6,1.18-.53,2.37-1.08,3.56-1.62,1.2-.55,2.4-1.1,3.61-1.66,1.21-.55,2.43-1.11,3.65-1.67,1.12-.51,2.24-1.03,3.36-1.55,2.03-.93,4.08-1.87,6.14-2.82,10.45-4.8,21.32-9.82,32.54-15.03,2.44-1.13,4.9-2.27,7.38-3.42,1.85-.87,3.72-1.74,5.59-2.61,1.88-.87,3.76-1.75,5.66-2.63,5.44-2.54,10.96-5.12,16.55-7.74,1.26-.59,2.52-1.18,3.78-1.77,5.05-2.37,10.16-4.77,15.32-7.2,6.44-3.04,12.97-6.12,19.58-9.25,1.36-.63,2.72-1.28,4.09-1.93,1.37-.64,2.74-1.3,4.12-1.95,15.57-7.39,31.53-15.01,47.81-22.84,6.11-2.94,12.26-5.91,18.45-8.9,15.25-7.37,30.74-14.91,46.41-22.6,4.5-2.21,9.02-4.43,13.55-6.66,42.26-20.83,85.7-42.66,129.09-65.08,3-1.54,5.99-3.09,8.99-4.65,3.2-1.66,6.4-3.32,9.6-4.99,3.1-1.61,6.19-3.22,9.29-4.84,9.73-5.08,19.44-10.19,29.12-15.32,5.35-2.83,10.69-5.67,16.02-8.52,49.45-26.39,97.92-53.23,143.57-79.88,2.84-1.64,5.66-3.3,8.47-4.95,2.65-1.56,5.28-3.11,7.91-4.66,11.31-6.69,22.43-13.36,33.32-20.01,5.38-3.27,10.69-6.54,15.95-9.8,3.95-2.44,7.86-4.88,11.73-7.32,3.88-2.43,7.72-4.86,11.53-7.29,1.27-.8,2.53-1.61,3.79-2.42,6.31-4.03,12.52-8.05,18.62-12.05,2.44-1.6,4.86-3.19,7.26-4.79,1.2-.79,2.41-1.59,3.6-2.39.55-.36,1.09-.72,1.64-1.09,1.68-1.12,3.35-2.24,5.02-3.36,1.66-1.12,3.32-2.24,4.96-3.36,1.65-1.11,3.29-2.23,4.91-3.34.35-.24.69-.47,1.03-.71,2.09-1.43,4.17-2.86,6.23-4.29,1.33-.92,2.65-1.84,3.97-2.76.87-.6,1.74-1.21,2.6-1.82,1.76-1.23,3.5-2.46,5.24-3.69,2.89-2.05,5.75-4.09,8.57-6.13,1.07-.77,2.14-1.54,3.19-2.31,2.08-1.51,4.14-3.01,6.17-4.52,4.2-3.08,8.3-6.15,12.31-9.2.96-.72,1.91-1.45,2.85-2.17,10.43-7.99,20.22-15.83,29.32-23.52,1.21-1.02,2.41-2.04,3.6-3.06,3.11-2.67,6.13-5.32,9.06-7.95.43-.38.86-.76,1.28-1.15,5.02-4.52,9.77-8.97,14.24-13.36.98-.96,1.94-1.92,2.89-2.87,1.35-1.35,2.69-2.71,3.99-4.06,2.61-2.71,5.13-5.39,7.51-8.04.74-.83,1.47-1.65,2.19-2.47.72-.82,1.43-1.64,2.13-2.46,1.01-1.17,1.99-2.34,2.94-3.49.38-.46.75-.91,1.12-1.36,0-.02.01-.02.01-.02.24-.29.47-.58.69-.87.42-.51.83-1.02,1.22-1.53,1.26-1.59,2.46-3.18,3.62-4.75.58-.78,1.15-1.56,1.7-2.34t.02-.01h0c.89-1.24,1.73-2.48,2.55-3.71,0-.01.01-.01.02-.02.58-.86,1.15-1.72,1.69-2.58.24-.36.47-.73.69-1.09.39-.61.76-1.21,1.13-1.81.36-.6.71-1.21,1.06-1.81.34-.59.68-1.19,1.01-1.78.01,0,.01-.01.01-.01.33-.59.65-1.18.97-1.77.31-.59.62-1.17.92-1.76t.01-.01h0c.29-.59.58-1.17.86-1.75.14-.29.28-.58.41-.87.21-.43.41-.87.6-1.3.4-.86.77-1.72,1.12-2.58.18-.43.36-.86.52-1.28.17-.43.33-.85.49-1.28.31-.81.59-1.61.85-2.41.13-.38.26-.76.37-1.14.12-.38.24-.76.35-1.14.11-.38.22-.77.33-1.15.1-.37.19-.73.28-1.1.18-.7.34-1.39.49-2.08.12-.55.22-1.09.32-1.62.04-.24.08-.48.12-.72.06-.36.12-.73.17-1.09.05-.36.1-.72.14-1.08.05-.36.09-.72.12-1.08.07-.68.12-1.35.15-2.01.01-.08.01-.16.01-.24.02-.29.03-.57.04-.86v-.21c.02-.85,0-1.7-.02-2.53-1.78-45.35-96.78-54.67-168.69-55.22-44.01-.33-79.35,2.64-79.35,2.64l-3.57-4.24c112.84-15.69,193.37-20.27,250.56-18.19,17.17.6,32.27,1.82,45.48,3.51h.02s.06.01.08.01c28.23,3.62,80.62,10.94,89.71,45.18,1.42,5.36,1.3,10.53.14,15.47Z"/></g><g id="g"><path d="M492.83,570.62c-20.5,10.18-40.89,20.13-60.89,29.76-3.13,1.51-6.26,3-9.37,4.5-10.83,5.19-21.54,10.28-32.09,15.26-4.28,2.02-8.53,4.02-12.76,6.01-11.26,5.29-22.29,10.43-33.05,15.42-.95.44-1.9.88-2.85,1.32-.95.44-1.89.88-2.83,1.3-4.57,2.11-9.08,4.19-13.54,6.25-3.57,1.64-7.1,3.26-10.59,4.86-.87.4-1.74.8-2.61,1.2-3.86,1.77-7.68,3.51-11.44,5.23-1.31.59-2.61,1.19-3.91,1.78-1.29.59-2.59,1.17-3.86,1.76-1.71.78-3.42,1.55-5.1,2.31-7.76,3.52-15.27,6.91-22.5,10.15-1.42.64-2.84,1.28-4.25,1.9-.77.35-1.55.7-2.32,1.05-.84.38-1.69.76-2.52,1.13-.84.38-1.67.75-2.5,1.12-.82.36-1.65.74-2.46,1.09-.82.36-1.63.73-2.44,1.08-.41.19-.82.36-1.22.55-.41.18-.81.36-1.21.55-3.21,1.43-6.33,2.82-9.4,4.17h-.01c-1.53.69-3.04,1.36-4.53,2.01,0,0,0,0-.01,0-.74.33-1.48.66-2.21.98-.37.17-.74.33-1.11.49-1.1.49-2.18.97-3.26,1.44,0,0,0,.01,0,.01-1.08.47-2.14.95-3.19,1.41-1.05.47-2.09.93-3.13,1.38-.7.31-1.38.61-2.07.91-.68.3-1.35.59-2.01.88-1.33.59-2.65,1.17-3.95,1.74-.66.29-1.3.57-1.94.86-1.27.55-2.52,1.11-3.75,1.64-1.85.82-3.67,1.61-5.41,2.38-.88.38-1.74.76-2.59,1.12-.28.13-.57.24-.85.36-.57.24-1.12.49-1.67.74-.05.01-.1.03-.15.06-3.6,1.57-6.95,3.03-10.05,4.37-.17.07-.35.16-.53.23-.84.37-1.67.73-2.48,1.07-.53.24-1.06.46-1.58.69-.8.34-1.58.68-2.33,1.01-2.94,1.27-5.55,2.4-7.83,3.38-.32.14-.63.27-.93.4-1.79.77-3.35,1.44-4.67,2.01l-.06.11-.2.38-.84,1.63c4.29-1.7,11.27-4.48,20.59-8.22.03-.01.07-.03.1-.04.02,0,.03-.01.06-.02,20.3-8.14,51.6-20.86,90.29-36.99,15.85-6.62,31.68-13.27,47.49-19.97,29.13-12.35,58.17-24.87,87.14-37.58,27.89-12.23,55.69-24.63,83.41-37.22v-13.4Z"/><path d="M0,1068.62v-277.2h45.55l101.77,231.26,99.83-231.26h43.62v277.2h-31.98v-227.38l-98.47,227.38h-28.3l-100.03-227.38v227.38H0Z"/><path d="M356.68,1068.62v-277.2h112.43c56.6,0,84.91,24.75,84.91,74.24,0,53.89-38.71,86.78-116.12,98.67l-7.37-30.24c56.86-8.4,85.29-30.69,85.29-66.88,0-30.75-16.67-46.13-50.01-46.13h-73.27v247.54h-35.86Z"/><path d="M637.37,791.41v248.12h145v29.08h-180.86v-277.2h35.86Z"/><path d="M866.69,791.41v277.2h-35.86v-277.2h35.86Z"/><path d="M1119.66,791.41v29.08h-145.38v93.05h138.6v29.08h-138.6v126h-35.86v-277.2h181.25Z"/><path d="M1151.78,791.41h39.74l79.87,144.8,81.03-144.8h41.68l-105.84,180.28v96.92h-35.86v-96.92l-100.61-180.28Z"/></g><g id="h"><path d="M1404.63,713.91h6.76c.93,0,1.69-.76,1.69-1.69s-.76-1.69-1.69-1.69h-6.76c-2.8,0-5.07,2.27-5.07,5.07s2.27,5.07,5.07,5.07h3.38c.93,0,1.69.76,1.69,1.69s-.76,1.69-1.69,1.69h-6.76c-.93,0-1.69.76-1.69,1.69s.76,1.69,1.69,1.69h6.76c2.8,0,5.07-2.27,5.07-5.07s-2.27-5.07-5.07-5.07h-3.38c-.93,0-1.69-.76-1.69-1.69s.76-1.69,1.69-1.69ZM1431.53,711.58c-.17-.41-.5-.74-.91-.91-.41-.17-.87-.17-1.28,0-.21.08-.4.2-.56.35l-4.72,4.73-4.72-4.73c-.16-.15-.35-.27-.56-.35-.41-.17-.87-.17-1.28,0-.41.17-.74.5-.91.91-.09.2-.13.42-.14.64v13.52c0,.93.76,1.69,1.69,1.69s1.69-.76,1.69-1.69v-9.45l3.03,3.04c.66.66,1.73.67,2.39,0,0,0,0,0,0,0l3.03-3.04v9.45c0,.93.76,1.69,1.69,1.69s1.69-.76,1.69-1.69v-13.52c0-.22-.05-.44-.14-.64Z"/></g></svg>